HIERARCHY
ROOT pelvis
{
	OFFSET 0.003123 -0.351407 0.012037
	CHANNELS 6 Xposition Yposition Zposition Zrotation Yrotation Xrotation 
	JOINT left_hip
	{
		OFFSET 0.058189 -0.092763 -0.026001
		CHANNELS 3 Zrotation Yrotation Xrotation
		JOINT left_knee
		{
			OFFSET 0.054695 -0.378753 -0.009396
			CHANNELS 3 Zrotation Yrotation Xrotation
			JOINT left_ankle
			{
				OFFSET -0.043453 -0.403059 -0.031876
				CHANNELS 3 Zrotation Yrotation Xrotation
				JOINT left_foot
				{
					OFFSET 0.047257 -0.057997 0.118216
					CHANNELS 3 Zrotation Yrotation Xrotation
					End Site
					{
						OFFSET 0.000000 0.000000 0.000000
					}
				}
			}
		}
	}
	JOINT right_hip
	{
		OFFSET -0.063267 -0.103908 -0.021250
		CHANNELS 3 Zrotation Yrotation Xrotation
		JOINT right_knee
		{
			OFFSET -0.044210 -0.362380 -0.016824
			CHANNELS 3 Zrotation Yrotation Xrotation
			JOINT right_ankle
			{
				OFFSET 0.015417 -0.410728 -0.020192
				CHANNELS 3 Zrotation Yrotation Xrotation
				JOINT right_foot
				{
					OFFSET -0.038812 -0.058328 0.119049
					CHANNELS 3 Zrotation Yrotation Xrotation
					End Site
					{
						OFFSET 0.000000 0.000000 0.000000
					}
				}
			}
		}
	}
	JOINT spine_1
	{
		OFFSET -0.002763 0.109891 -0.027618
		CHANNELS 3 Zrotation Yrotation Xrotation
		JOINT spine_2
		{
			OFFSET 0.009448 0.131853 -0.005940
			CHANNELS 3 Zrotation Yrotation Xrotation
			JOINT spine_3
			{
				OFFSET -0.011330 0.052235 0.028447
				CHANNELS 3 Zrotation Yrotation Xrotation
				JOINT neck
				{
					OFFSET -0.012164 0.165167 -0.031615
					CHANNELS 3 Zrotation Yrotation Xrotation
					JOINT head
					{
						OFFSET 0.024783 0.160452 0.020737
						CHANNELS 3 Zrotation Yrotation Xrotation
						End Site
						{
							OFFSET 0.000000 0.000000 0.000000
						}
					}
				}
				JOINT left_collar
				{
					OFFSET 0.046364 0.084944 -0.007220
					CHANNELS 3 Zrotation Yrotation Xrotation
					JOINT left_shoulder
					{
						OFFSET 0.119239 0.057728 -0.015461
						CHANNELS 3 Zrotation Yrotation Xrotation
						JOINT left_elbow
						{
							OFFSET 0.254123 -0.072151 -0.042459
							CHANNELS 3 Zrotation Yrotation Xrotation
							JOINT left_wrist
							{
								OFFSET 0.251987 0.023221 -0.002472
								CHANNELS 3 Zrotation Yrotation Xrotation
								JOINT left_index_1
								{
									OFFSET 0.101902 -0.008688 0.019351
									CHANNELS 3 Zrotation Yrotation Xrotation
									JOINT left_index_2
									{
										OFFSET 0.030149 -0.011154 0.001151
										CHANNELS 3 Zrotation Yrotation Xrotation
										JOINT left_index_3
										{
											OFFSET 0.006504 -0.021577 -0.002433
											CHANNELS 3 Zrotation Yrotation Xrotation
											End Site
											{
												OFFSET 0.000000 0.000000 0.000000
											}
										}
									}
								}
								JOINT left_middle_1
								{
									OFFSET 0.109398 -0.006328 -0.003981
									CHANNELS 3 Zrotation Yrotation Xrotation
									JOINT left_middle_2
									{
										OFFSET 0.026472 -0.015218 -0.004641
										CHANNELS 3 Zrotation Yrotation Xrotation
										JOINT left_middle_3
										{
											OFFSET 0.005022 -0.023347 -0.001911
											CHANNELS 3 Zrotation Yrotation Xrotation
											End Site
											{
												OFFSET 0.000000 0.000000 0.000000
											}
										}
									}
								}
								JOINT left_pinky_1
								{
									OFFSET 0.084047 -0.014539 -0.043750
									CHANNELS 3 Zrotation Yrotation Xrotation
									JOINT left_pinky_2
									{
										OFFSET 0.012124 -0.014448 -0.005375
										CHANNELS 3 Zrotation Yrotation Xrotation
										JOINT left_pinky_3
										{
											OFFSET 0.003798 -0.018853 0.000167
											CHANNELS 3 Zrotation Yrotation Xrotation
											End Site
											{
												OFFSET 0.000000 0.000000 0.000000
											}
										}
									}
								}
								JOINT left_ring_1
								{
									OFFSET 0.097444 -0.009268 -0.027345
									CHANNELS 3 Zrotation Yrotation Xrotation
									JOINT left_ring_2
									{
										OFFSET 0.023561 -0.016057 -0.001895
										CHANNELS 3 Zrotation Yrotation Xrotation
										JOINT left_ring_3
										{
											OFFSET 0.004257 -0.023548 0.000814
											CHANNELS 3 Zrotation Yrotation Xrotation
											End Site
											{
												OFFSET 0.000000 0.000000 0.000000
											}
										}
									}
								}
								JOINT left_thumb_1
								{
									OFFSET 0.040636 -0.017977 0.025611
									CHANNELS 3 Zrotation Yrotation Xrotation
									JOINT left_thumb_2
									{
										OFFSET 0.021637 -0.017639 0.011623
										CHANNELS 3 Zrotation Yrotation Xrotation
										JOINT left_thumb_3
										{
											OFFSET 0.024002 -0.008356 0.006548
											CHANNELS 3 Zrotation Yrotation Xrotation
											End Site
											{
												OFFSET 0.000000 0.000000 0.000000
											}
										}
									}
								}
							}
						}
					}
				}
				JOINT right_collar
				{
					OFFSET -0.047695 0.084339 -0.013400
					CHANNELS 3 Zrotation Yrotation Xrotation
					JOINT right_shoulder
					{
						OFFSET -0.102578 0.053524 -0.012669
						CHANNELS 3 Zrotation Yrotation Xrotation
						JOINT right_elbow
						{
							OFFSET -0.271150 -0.036492 -0.026467
							CHANNELS 3 Zrotation Yrotation Xrotation
							JOINT right_wrist
							{
								OFFSET -0.249267 -0.004533 -0.015325
								CHANNELS 3 Zrotation Yrotation Xrotation
								JOINT right_index_1
								{
									OFFSET -0.099881 -0.011783 0.019600
									CHANNELS 3 Zrotation Yrotation Xrotation
									JOINT right_index_2
									{
										OFFSET -0.030148 -0.011154 0.001151
										CHANNELS 3 Zrotation Yrotation Xrotation
										JOINT right_index_3
										{
											OFFSET -0.006505 -0.021577 -0.002432
											CHANNELS 3 Zrotation Yrotation Xrotation
											End Site
											{
												OFFSET 0.000000 0.000000 0.000000
											}
										}
									}
								}
								JOINT right_middle_1
								{
									OFFSET -0.107376 -0.009422 -0.003734
									CHANNELS 3 Zrotation Yrotation Xrotation
									JOINT right_middle_2
									{
										OFFSET -0.026472 -0.015218 -0.004641
										CHANNELS 3 Zrotation Yrotation Xrotation
										JOINT right_middle_3
										{
											OFFSET -0.005022 -0.023347 -0.001911
											CHANNELS 3 Zrotation Yrotation Xrotation
											End Site
											{
												OFFSET 0.000000 0.000000 0.000000
											}
										}
									}
								}
								JOINT right_pinky_1
								{
									OFFSET -0.082027 -0.017634 -0.043503
									CHANNELS 3 Zrotation Yrotation Xrotation
									JOINT right_pinky_2
									{
										OFFSET -0.012123 -0.014448 -0.005374
										CHANNELS 3 Zrotation Yrotation Xrotation
										JOINT right_pinky_3
										{
											OFFSET -0.003798 -0.018852 0.000167
											CHANNELS 3 Zrotation Yrotation Xrotation
											End Site
											{
												OFFSET 0.000000 0.000000 0.000000
											}
										}
									}
								}
								JOINT right_ring_1
								{
									OFFSET -0.095423 -0.012362 -0.027099
									CHANNELS 3 Zrotation Yrotation Xrotation
									JOINT right_ring_2
									{
										OFFSET -0.023561 -0.016057 -0.001895
										CHANNELS 3 Zrotation Yrotation Xrotation
										JOINT right_ring_3
										{
											OFFSET -0.004257 -0.023548 0.000816
											CHANNELS 3 Zrotation Yrotation Xrotation
											End Site
											{
												OFFSET 0.000000 0.000000 0.000000
											}
										}
									}
								}
								JOINT right_thumb_1
								{
									OFFSET -0.038613 -0.021074 0.025861
									CHANNELS 3 Zrotation Yrotation Xrotation
									JOINT right_thumb_2
									{
										OFFSET -0.021636 -0.017639 0.011623
										CHANNELS 3 Zrotation Yrotation Xrotation
										JOINT right_thumb_3
										{
											OFFSET -0.024004 -0.008353 0.006547
											CHANNELS 3 Zrotation Yrotation Xrotation
											End Site
											{
												OFFSET 0.000000 0.000000 0.000000
											}
										}
									}
								}
							}
						}
					}
				}
			}
		}
	}
}
MOTION
Frames: 4
Frame Time: 0.050000
-0.807465 0.978170 0.032265 -6.030588 30.687729 -10.477892 -6.763309 1.273324 6.185437 5.671934 -1.983998 10.159054 20.129580 26.348215 -2.117779 0.000000 0.000000 0.000000 9.914867 0.868068 -5.004426 -4.029801 -1.905987 37.144748 3.328380 -1.266864 20.677056 0.000000 0.000000 0.000000 -2.588200 -1.706891 22.848740 -9.246827 1.839679 -15.525162 11.535044 6.009163 8.944420 7.616051 0.176812 -4.850281 0.000000 0.000000 0.000000 12.835264 0.541762 3.824758 -38.879772 -61.638173 -12.518225 104.138034 -57.381781 -62.198547 19.792201 -2.958615 -23.066373 2.997814 3.322401 0.821308 12.787235 -1.555029 -11.953478 0.000000 0.000000 0.000000 -5.574534 -11.085614 -5.304100 13.429229 -0.105585 -5.181419 0.000000 0.000000 0.000000 18.107627 -14.171056 -18.881698 14.118804 0.440713 1.894628 0.000000 0.000000 0.000000 -0.459391 -9.641406 -6.138824 19.897774 1.188289 -8.070232 0.000000 0.000000 0.000000 24.504522 12.604975 -3.951843 -18.196384 0.503588 4.883996 0.000000 0.000000 0.000000 -13.069483 2.878676 0.092391 64.055773 56.076872 33.987398 -123.756810 45.252808 -68.076346 -15.881711 -6.348375 -25.154704 -2.467166 -2.306336 0.548459 -8.098700 1.298033 -12.190513 0.000000 0.000000 0.000000 9.336787 11.029446 -5.459850 -14.270228 -0.002751 -9.369613 0.000000 0.000000 0.000000 -13.183590 13.946336 -19.793371 -17.019580 -0.144602 0.314504 0.000000 0.000000 0.000000 3.677071 11.824725 -7.337755 -19.119580 -1.179088 -8.899822 0.000000 0.000000 0.000000 -24.285268 -11.866314 -4.935749 18.359918 -0.483702 4.694993 0.000000 0.000000 0.000000 
-0.811234 0.978493 0.028305 -5.326355 32.827568 -11.484186 -7.536968 1.484549 7.532877 6.426542 -1.978245 9.722728 19.250207 24.360000 -2.884465 0.000000 0.000000 0.000000 9.523752 1.030644 -5.888945 -3.702730 -2.522849 37.662718 1.685230 -6.010556 29.258060 0.000000 0.000000 0.000000 -2.103117 -1.799383 23.083958 -7.628845 1.146671 -16.400410 9.782023 6.483842 10.452964 7.200258 0.043894 -4.000972 0.000000 0.000000 0.000000 12.797874 0.324672 4.078382 -36.092793 -62.395320 -14.624370 103.092828 -59.384494 -63.791846 19.902985 -0.428300 -20.794712 2.007962 2.544141 0.611039 11.687503 -1.723924 -12.596138 0.000000 0.000000 0.000000 -6.072400 -12.540983 -5.901798 12.287928 -0.108666 -4.907666 0.000000 0.000000 0.000000 18.304779 -14.911167 -19.992060 13.524873 1.237939 6.671312 0.000000 0.000000 0.000000 -1.097073 -10.768437 -6.764655 19.965648 1.155178 -8.463100 0.000000 0.000000 0.000000 23.453754 12.614756 -3.489566 -17.409074 -0.027403 4.468971 0.000000 0.000000 0.000000 -12.627110 3.686048 0.292307 63.017666 55.894599 34.077541 -123.727856 44.284406 -65.794048 -15.230029 -6.855467 -26.190169 -0.772487 -3.371061 0.813391 -7.860432 0.679382 -9.738248 0.000000 0.000000 0.000000 8.508893 9.264797 -4.790985 -13.285341 0.005460 -9.473153 0.000000 0.000000 0.000000 -15.229985 13.666678 -20.011020 -11.178650 -0.508723 1.574703 0.000000 0.000000 0.000000 2.933507 10.526282 -6.687056 -17.972042 -1.011136 -9.193699 0.000000 0.000000 0.000000 -23.350870 -12.356251 -4.189501 16.833808 1.325962 3.693282 0.000000 0.000000 0.000000 
-0.818771 0.978493 0.023026 -5.295003 34.243081 -12.263281 -6.744832 1.423026 7.709207 5.542154 -1.899874 9.953049 18.791717 23.063461 -3.617972 0.000000 0.000000 0.000000 10.629232 1.422133 -8.398222 -4.856456 -2.667868 39.552869 0.204726 -10.367075 38.256907 0.000000 0.000000 0.000000 -1.502078 -1.918726 23.302124 -7.501752 1.182682 -16.363005 9.837029 7.596739 10.402362 7.664370 0.160012 -4.623156 0.000000 0.000000 0.000000 12.587794 -1.065585 4.694168 -32.027628 -63.419753 -17.413850 100.671963 -60.330355 -63.098165 21.002132 -0.792257 -19.133837 1.934366 5.071215 1.320218 9.464975 -2.350040 -13.965958 0.000000 0.000000 0.000000 -5.800716 -10.598432 -5.125533 8.245696 -0.580797 -6.856640 0.000000 0.000000 0.000000 17.713889 -14.622821 -19.082732 13.945783 1.028667 5.726054 0.000000 0.000000 0.000000 -0.729386 -9.732511 -6.128899 15.860413 0.493083 -9.582485 0.000000 0.000000 0.000000 22.237102 13.171967 -2.349919 -16.563808 -4.214989 3.001561 0.000000 0.000000 0.000000 -12.646244 2.674540 -0.320809 63.246970 55.258878 34.909344 -124.105512 43.754992 -64.979129 -14.973952 -7.336389 -24.581267 -0.333914 -3.170715 0.751887 -9.915728 0.415258 -9.929867 0.000000 0.000000 0.000000 10.513313 10.673110 -5.330321 -12.682531 0.043318 -9.583478 0.000000 0.000000 0.000000 -10.987356 13.658032 -19.592942 -16.041210 -0.325994 1.458407 0.000000 0.000000 0.000000 5.197615 11.358990 -6.887468 -17.815329 -0.722617 -11.008819 0.000000 0.000000 0.000000 -24.720456 -11.868418 -5.323550 19.545736 -1.437530 5.224002 0.000000 0.000000 0.000000 
-0.826309 0.978815 0.019066 -4.779575 36.853909 -13.091520 -6.943621 1.482098 8.368330 5.801906 -1.895495 9.864210 17.902503 20.838006 -4.396440 0.000000 0.000000 0.000000 10.568582 1.573276 -9.725729 -4.392023 -3.476048 39.907479 -0.630235 -10.454875 36.918173 0.000000 0.000000 0.000000 -0.736161 -2.033064 23.364145 -9.755755 2.131888 -16.189383 10.677520 5.543478 10.577789 8.761112 0.243881 -5.610748 0.000000 0.000000 0.000000 12.643293 -1.936914 4.968922 -27.558688 -64.385956 -19.755368 99.331701 -60.942000 -62.831889 21.663663 2.356174 -16.934062 -0.242914 -0.396951 -0.052779 12.348884 -0.987042 -8.091500 0.000000 0.000000 0.000000 -8.300053 -12.317806 -5.756310 12.748038 -0.404301 -7.249856 0.000000 0.000000 0.000000 18.940140 -15.700086 -20.696845 10.015606 1.158924 5.211254 0.000000 0.000000 0.000000 -0.331217 -11.246810 -7.126549 16.173252 0.492388 -10.174228 0.000000 0.000000 0.000000 21.639509 13.306183 -1.846968 -17.274488 -5.579412 2.883572 0.000000 0.000000 0.000000 -11.934819 2.332882 -0.411259 61.620673 54.410298 32.959544 -126.013496 43.820529 -66.857521 -14.072290 -7.553106 -23.239400 0.844914 -3.614804 0.912531 -13.628680 0.508362 -11.498568 0.000000 0.000000 0.000000 7.010395 9.407409 -5.012713 -8.351917 0.460163 -8.702121 0.000000 0.000000 0.000000 -13.851685 13.717809 -19.687742 -15.781585 -0.422076 1.743574 0.000000 0.000000 0.000000 3.410511 10.578102 -6.721319 -19.144090 -1.178696 -9.148621 0.000000 0.000000 0.000000 -22.374198 -13.192434 -2.801873 16.896344 2.557994 3.335678 0.000000 0.000000 0.000000 
